<?xml version="1.0" encoding="UTF-8"?>
<!DOCTYPE svg PUBLIC "-//W3C//DTD SVG 1.1//EN" "http://www.w3.org/Graphics/SVG/1.1/DTD/svg11.dtd">
<!-- Creator: CorelDRAW 2020 (64 Bit) -->
<svg xmlns="http://www.w3.org/2000/svg" xml:space="preserve" width="84.1353mm" height="84.2001mm" version="1.1" style="shape-rendering:geometricPrecision; text-rendering:geometricPrecision; image-rendering:optimizeQuality; fill-rule:evenodd; clip-rule:evenodd"
viewBox="0 0 3791.77 3794.69"
 xmlns:xlink="http://www.w3.org/1999/xlink"
 xmlns:xodm="http://www.corel.com/coreldraw/odm/2003">
 <defs>
  <style type="text/css">
   <![CDATA[
    .str0 {stroke:#373435;stroke-width:0;stroke-miterlimit:22.9256}
    .fil0 {fill:none}
    .fil1 {fill:rgba(0,0,0,0.15)}
   ]]>
  </style>
 </defs>
 <g id="Camada_x0020_1">
  <metadata id="CorelCorpID_0Corel-Layer"/>
  <rect class="fil0" x="1.42" y="4.51" width="3785.68" height="3785.68"/>
  <path class="fil1 str0" d="M272.84 241.49l682.04 0 0 -151.57c0,-46.98 38.44,-85.42 85.42,-85.42l0 0c46.98,0 85.42,38.44 85.42,85.42l0 151.57 0 170.84 0 149.54c0,46.98 -38.44,85.42 -85.42,85.42l0 0c-46.98,0 -85.42,-38.44 -85.42,-85.42l0 -149.54 -613.85 0c-91.13,0 -165.68,74.55 -165.68,165.68l0 308.22 3025.56 0 0 -308.22c0,-91.13 -74.56,-165.68 -165.68,-165.68l-617.45 0 0 -170.84 685.64 0c147.58,0 268.33,120.75 268.33,268.33l0 1419.65c-53.76,-36.64 -110.89,-68.67 -170.84,-95.55l0 -776.85 -3025.56 0 0 1932.79c0,91.13 74.56,165.68 165.68,165.68l1339.5 0c17.05,59.12 38.85,116.22 65.01,170.84l-1472.7 0c-147.59,0 -268.33,-120.75 -268.33,-268.34l0 -2548.22c0,-147.59 120.75,-268.33 268.33,-268.33zm2570.94 2438.32c57.93,33.4 96.94,95.97 96.94,167.65 0,19.36 -2.86,38.04 -8.15,55.67l136.03 164.69c44.41,53.77 71.31,107.64 30.75,146.72l0 0c-40.57,39.08 -93.84,10.48 -145.47,-36.21l-158.67 -143.47c-15.31,3.9 -31.34,5.98 -47.86,5.98 -106.8,0 -193.38,-86.57 -193.38,-193.38 0,-71.68 39.01,-134.25 96.94,-167.65l16.8 -278.26c4.2,-69.66 23.31,-127 79.64,-127l0 0c56.33,0 75.44,57.38 79.65,127l16.79 278.26zm-96.44 -775.07c387.82,0 720.9,234.2 865.62,568.87l171.04 -58.98 -151.41 384.79 -348.37 -215.12 158.3 -54.81c-120.66,-263.37 -386.53,-446.33 -695.18,-446.33 -422.11,0 -764.29,342.18 -764.29,764.3 0,422.11 342.18,764.3 764.29,764.3 243.02,0 459.5,-113.45 599.47,-290.24 45.16,-57.04 73.42,-112.96 107.44,-176.37 14.23,-30.09 44.86,-50.92 80.36,-50.92 49.07,0 88.86,39.79 88.86,88.86 0,12.25 -2.48,23.94 -6.97,34.55 -47.58,95.62 -63.88,130.72 -127.46,211.66 -172.57,219.72 -440.64,360.89 -741.7,360.89 -520.65,0 -942.71,-422.07 -942.71,-942.72 0,-520.65 422.07,-942.72 942.71,-942.72zm-2176 -352.87l385.56 0c53.02,0 96.39,43.37 96.39,96.39l0 234.96c0,53.01 -43.37,96.39 -96.39,96.39l-385.56 0c-53.02,0 -96.39,-43.37 -96.39,-96.39l0 -234.96c0,-53.01 43.37,-96.39 96.39,-96.39zm0 774.14l385.56 0c53.02,0 96.39,43.37 96.39,96.38l0 234.96c0,53.01 -43.37,96.39 -96.39,96.39l-385.56 0c-53.02,0 -96.39,-43.37 -96.39,-96.39l0 -234.96c0,-53.01 43.37,-96.38 96.39,-96.38zm917.54 0l278.22 0c-69,129.43 -113.09,274.14 -125.95,427.72l-152.28 0c-53.02,0 -96.39,-43.37 -96.39,-96.39l0 -234.96c0,-53.01 43.37,-96.38 96.39,-96.38zm919.87 -774.14l385.56 0c53.02,0 96.39,43.37 96.39,96.39l0 98.24c-46.93,-6.05 -94.78,-9.19 -143.36,-9.19 -154.38,0 -301.41,31.53 -434.97,88.49l0 -177.53c0,-53.01 43.37,-96.39 96.39,-96.39zm-918.7 0l385.56 0c53.02,0 96.39,43.37 96.39,96.39l0 234.96c0,53.01 -43.37,96.39 -96.39,96.39l-385.56 0c-53.02,0 -96.39,-43.37 -96.39,-96.39l0 -234.96c0,-53.01 43.37,-96.39 96.39,-96.39zm671.47 -1547.37l0 0c46.98,0 85.42,38.44 85.42,85.42l0 151.57 0 170.84 0 149.54c0,46.98 -38.44,85.42 -85.42,85.42l0 0c-46.98,0 -85.42,-38.44 -85.42,-85.42l0 -149.54 -779.53 0 0 -170.84 779.53 0 0 -151.57c0,-46.98 38.44,-85.42 85.42,-85.42z"/>
 </g>
</svg>
