<?xml version="1.0" encoding="UTF-8"?>
<!DOCTYPE svg PUBLIC "-//W3C//DTD SVG 1.1//EN" "http://www.w3.org/Graphics/SVG/1.1/DTD/svg11.dtd">
<!-- Creator: CorelDRAW 2020 (64 Bit) -->
<svg xmlns="http://www.w3.org/2000/svg" xml:space="preserve" width="59.7252mm" height="53.7905mm" version="1.1" style="shape-rendering:geometricPrecision; text-rendering:geometricPrecision; image-rendering:optimizeQuality; fill-rule:evenodd; clip-rule:evenodd"
viewBox="0 0 16583.14 14935.33"
 xmlns:xlink="http://www.w3.org/1999/xlink"
 xmlns:xodm="http://www.corel.com/coreldraw/odm/2003">
 <defs>
  <style type="text/css">
   <![CDATA[
    .fil0 {fill:#FFF;fill-rule:nonzero}
   ]]>
  </style>
 </defs>
 <g id="Camada_x0020_1">
  <metadata id="CorelCorpID_0Corel-Layer"/>
  <path class="fil0" d="M11107.88 8400.16c584.86,-280.63 1002.29,-577.78 1462.14,-1037.63 1072.98,-1079.2 1317.82,-1957.73 1417.02,-3247.34 14.16,-172.15 9.44,-214.6 -25.93,-275.91 -80.19,-136.77 -228.76,-160.37 -344.32,-56.61 -70.75,63.67 -75.47,77.83 -94.32,313.64 -51.89,620.23 -207.52,1172.07 -483.46,1726.28 -398.55,794.74 -1009.34,1462.14 -1754.54,1917.28 -1511.79,919.6 -3345.99,919.6 -4857.78,0 -745.2,-455.14 -1356,-1122.54 -1754.54,-1917.28 -275.94,-554.2 -431.56,-1106.05 -483.46,-1726.28 -18.85,-235.81 -23.57,-249.97 -94.32,-313.64 -115.56,-103.76 -264.14,-80.16 -344.32,56.61 -35.37,61.31 -40.09,103.76 -25.93,275.91 99.21,1289.61 344.05,2168.14 1417.02,3247.34 459.86,459.86 877.29,757 1462.14,1037.63 1405.33,670.9 3099.24,670.9 4504.6,0zm2508.94 -6968.73c-193.39,-193.39 66.03,-492.87 297.15,-341.96 30.65,21.24 68.39,73.11 82.52,117.92 77.83,231.12 -205.16,398.55 -379.67,224.04zm80.16 1070.67c-110.84,-47.17 -148.55,-120.28 -148.55,-290.07 0,-172.18 44.79,-278.3 132.05,-311.31 101.4,-40.09 169.79,-25.93 247.61,42.45 63.69,56.59 77.83,87.24 87.27,198.08 11.8,136.77 -23.57,280.66 -77.83,325.44 -61.31,49.53 -165.07,66.03 -240.53,35.37l-0.03 0.03zm-21.21 834.83c-63.67,-33.01 -127.33,-141.49 -127.33,-221.68 0,-42.45 28.29,-91.96 82.52,-146.21 73.11,-73.11 94.35,-82.55 169.82,-70.75 273.55,44.81 278.27,417.43 4.72,452.78 -44.81,7.08 -101.43,0 -129.72,-14.13zm-3629.43 3362.9c1304.13,-537.91 1978.61,-1655.75 1978.61,-2983.21 2.36,-448.08 -2.36,-502.34 -61.31,-731.07 -141.49,-561.28 -337.24,-943.31 -709.86,-1386.68 -440.98,-523.55 -1117.82,-917.38 -1815.88,-1056.51 -354.96,-68.55 -809.7,-68.55 -1164.66,0 -698.06,139.13 -1374.9,532.96 -1815.88,1056.51 -372.62,443.36 -568.36,825.39 -709.86,1386.68 -58.95,228.73 -63.67,282.99 -61.31,731.07 0,1327.45 674.49,2445.3 1978.61,2983.21 770.22,318.31 1611.3,318.31 2381.52,0zm1792.31 -5105.67c1406.39,2001.38 601.85,4856.73 -1803.77,5631.58 -757.17,240.87 -1601.42,240.87 -2358.59,0 -2405.62,-774.86 -3210.16,-3630.2 -1803.77,-5631.58 1499.71,-2136.88 4482.28,-2114.19 5966.13,0zm-7744.31 -162.73c193.39,-193.39 -66.03,-492.87 -297.15,-341.96 -30.65,21.24 -68.39,73.11 -82.52,117.92 -77.83,231.12 205.16,398.55 379.67,224.04zm-80.16 1070.67c110.84,-47.17 148.55,-120.28 148.55,-290.07 0,-172.18 -44.79,-278.3 -132.05,-311.31 -101.4,-40.09 -169.79,-25.93 -247.61,42.45 -63.69,56.59 -77.83,87.24 -87.27,198.08 -11.8,136.77 23.57,280.66 77.83,325.44 61.31,49.53 165.07,66.03 240.53,35.37l0.03 0.03zm21.21 834.83c63.67,-33.01 127.33,-141.49 127.33,-221.68 0,-42.45 -28.29,-91.96 -82.52,-146.21 -73.11,-73.11 -94.35,-82.55 -169.82,-70.75 -273.55,44.81 -278.27,417.43 -4.72,452.78 44.81,7.08 101.43,0 129.72,-14.13z"/>
  <path class="fil0" d="M8471.02 1207.78c-193.36,73.11 -396.19,273.55 -450.42,448.06 -9.44,25.96 -66.03,77.83 -127.36,117.92 -365.54,228.76 -589.55,620.23 -639.08,1113.1 -42.45,407.99 37.73,785.33 221.68,1054.15l99.04 146.21 -150.93 162.73c-214.6,235.84 -278.27,374.98 -278.27,613.15 0,158.01 9.41,209.88 66.03,323.08 61.31,125 294.79,372.62 349.02,372.62 21.24,0 153.29,84.91 186.31,117.92 7.08,7.08 51.89,30.65 99.04,51.87 117.92,54.25 179.26,108.48 233.48,207.55 54.25,101.4 193.39,259.39 228.76,259.39 258.05,0 438.37,277.66 988.1,18.88 103.79,-47.17 299.51,-235.84 337.24,-323.08 18.88,-47.17 73.11,-96.71 153.29,-141.49 209.88,-120.28 419.76,-332.52 528.24,-542.43 132.08,-257.06 174.54,-448.06 174.54,-792.38 0,-452.78 -115.56,-768.81 -377.34,-1037.63l-129.69 -132.08 58.95 -63.67c124.97,-136.77 278.27,-374.98 311.31,-485.79 115.53,-386.78 -54.25,-723.99 -471.68,-938.62 -150.93,-75.47 -205.16,-117.89 -233.45,-176.87 -56.61,-120.25 -200.47,-264.11 -330.16,-332.52 -110.84,-56.59 -146.21,-63.67 -438.64,-68.39 -231.12,-4.72 -341.96,2.36 -407.99,28.29l0 0.03zm629.67 448.06c96.71,47.17 155.65,146.21 155.65,266.5 0,89.63 4.72,94.32 82.55,108.48 124.97,23.57 502.31,221.68 544.76,287.71 94.32,141.49 35.37,304.23 -193.39,544.76 -122.64,129.72 -198.11,132.08 -445.72,14.16 -157.99,-73.11 -205.16,-84.91 -351.38,-84.91 -188.67,0 -306.59,44.81 -334.88,129.72 -21.21,68.39 -21.21,216.96 0,252.33 33.01,49.51 150.93,94.32 476.38,179.23 561.28,143.85 745.23,261.75 900.86,573.06 87.27,179.23 87.27,181.59 87.27,474.02 0,344.3 -35.37,481.1 -172.18,683.9 -99.04,146.21 -297.12,287.71 -485.79,346.68l-122.64 37.71 0 125c2.36,101.4 -9.41,136.77 -54.23,186.31 -33.01,33.01 -75.47,61.31 -99.04,61.31 -23.6,0 -49.53,11.8 -56.61,23.57 -21.21,35.37 -426.84,9.44 -474.02,-28.29 -143.85,-115.56 -155.63,-136.77 -146.21,-247.61l7.08 -108.48 -122.64 -42.45c-209.88,-70.75 -412.68,-191.03 -554.18,-327.8 -127.36,-122.61 -136.8,-139.13 -136.8,-240.53 0,-94.35 16.52,-127.36 117.92,-257.06 139.13,-176.87 219.32,-233.48 325.44,-233.48 94.35,0 155.65,30.65 252.33,122.64 158.01,155.63 429.2,231.09 653.24,186.28 176.87,-37.71 242.89,-108.48 242.89,-264.11 0,-181.59 -4.72,-183.95 -660.32,-341.96 -323.08,-77.83 -438.64,-134.41 -591.91,-297.15 -150.93,-160.35 -221.68,-337.21 -238.2,-608.43 -21.21,-351.38 63.69,-641.44 249.97,-851.35 108.48,-122.61 353.76,-280.63 433.92,-280.63 23.6,0 37.73,-37.73 47.17,-120.28 18.88,-148.57 66.03,-226.4 165.07,-268.83 103.79,-44.81 403.27,-44.81 497.62,0l0 0z"/>
  <path class="fil0" d="M1485.8 8603.91c-195.75,91.96 -271.22,205.16 -358.46,532.96 -341.96,1306.49 -738.15,2919.57 -723.99,2969.07 23.57,94.35 117.89,167.46 224.01,167.46 172.18,0 183.95,-25.96 410.35,-919.74 110.84,-441 287.71,-1131.98 391.47,-1535.25 101.4,-403.27 186.31,-740.48 186.31,-747.56 0,-9.44 21.21,-25.96 47.17,-40.09 37.73,-18.85 89.6,-14.16 219.32,21.21 91.96,25.96 636.72,165.1 1207.42,308.95 1207.45,304.2 1183.88,297.15 1214.53,351.38 14.16,30.65 -23.57,221.68 -141.49,676.85 -87.27,349.02 -341.96,1351.27 -566,2226.2 -221.65,874.93 -412.68,1627.21 -426.84,1669.66 -37.73,115.56 -80.19,127.36 -282.99,73.11 -96.68,-25.93 -636.75,-162.71 -1200.37,-306.56 -563.64,-141.49 -1065.95,-268.86 -1113.1,-282.99 -54.25,-14.16 -91.99,-40.09 -101.4,-70.75 -9.44,-25.96 7.05,-146.21 37.71,-266.5 61.33,-259.42 44.81,-334.88 -84.88,-405.63 -96.71,-51.87 -209.88,-25.93 -275.94,63.67 -68.39,91.99 -165.07,504.67 -146.21,634.39 18.88,141.49 82.55,259.42 188.67,351.38 108.48,96.68 101.4,94.35 698.06,247.61 1976.25,509.39 2103.59,537.71 2230.95,525.91 254.7,-25.96 419.76,-186.31 502.31,-478.74 23.57,-87.27 47.17,-162.73 54.23,-167.43 4.72,-4.72 129.72,28.29 275.94,73.11 830.11,249.97 1268.76,316 2721.46,403.24 544.76,33.04 1330.06,80.19 1745.13,106.15 2679,165.07 2688.44,167.43 2785.13,132.05 51.89,-16.49 374.98,-226.4 721.63,-464.58 346.68,-238.2 856.07,-587.22 1129.62,-775.89 275.94,-188.67 848.99,-580.14 1275.84,-872.57 424.51,-292.43 1028.22,-705.14 1341.89,-919.71 311.28,-212.27 610.79,-433.92 662.66,-490.54 186.31,-202.8 285.38,-540.04 233.48,-799.46 -84.91,-436.28 -405.63,-733.43 -853.71,-794.74l-181.59 -23.6 0 -179.23c0,-707.47 -716.91,-1157.91 -1367.8,-860.77 -103.76,47.17 -216.96,143.85 -516.47,441 -316,316 -384.39,372.62 -396.19,334.88 -106.12,-334.88 -396.19,-580.14 -726.35,-615.54 -150.93,-14.13 -379.67,40.09 -504.67,120.28 -49.51,30.65 -268.86,238.2 -490.51,459.88 -384.42,386.75 -400.91,405.63 -400.91,497.59 0,132.05 91.96,224.04 224.01,224.04 91.99,0 110.87,-16.52 478.74,-379.7 209.91,-209.88 407.99,-398.55 441,-419.76 82.55,-54.25 271.22,-49.53 370.26,11.8 139.13,87.24 207.52,280.63 148.57,433.92 -11.8,33.01 -226.4,294.79 -476.38,580.14 -249.97,285.35 -478.74,554.18 -507.03,594.27 -77.83,108.48 -70.75,193.39 25.93,290.07 91.99,91.99 176.87,103.76 285.35,37.73 40.09,-25.93 532.99,-514.11 1096.61,-1087.17 1098.97,-1115.46 1148.5,-1157.91 1365.46,-1157.91 297.12,2.36 528.24,268.86 488.15,561.26 -18.85,139.16 -61.31,209.91 -219.32,372.62 -115.53,117.92 -268.83,214.6 -973.97,622.59 -459.86,264.14 -1054.15,608.43 -1320.65,761.73 -266.47,153.29 -561.26,325.44 -657.94,377.31 -249.97,143.85 -306.59,283.02 -167.46,422.15 61.31,58.95 87.27,70.75 150.93,58.95 42.45,-7.08 863.13,-459.86 1820.6,-1006.98 1516.37,-865.49 1759.26,-995.21 1863.03,-1006.98 398.55,-42.45 672.13,356.1 490.54,716.91 -54.23,110.84 -94.32,146.21 -483.46,412.68 -233.45,160.37 -525.88,358.46 -648.52,443.36 -120.25,84.91 -523.52,360.82 -893.78,613.15 -370.26,252.33 -773.53,528.27 -896.17,613.15 -122.61,84.91 -323.08,221.68 -448.06,306.59 -122.64,84.88 -514.11,351.38 -865.49,596.63 -426.87,292.43 -683.93,452.8 -761.73,476.38 -96.71,30.65 -174.54,33.01 -471.66,11.8 -443.36,-28.29 -1509.32,-94.32 -3289.82,-200.47 -759.37,-44.79 -1502.21,-94.32 -1650.78,-108.48 -521.19,-47.15 -1061.23,-157.99 -1587.12,-320.72 -219.32,-68.39 -273.58,-94.32 -266.5,-122.61 11.8,-42.45 610.79,-2403.1 669.74,-2638.94 30.68,-124.97 51.89,-160.35 132.08,-224.01 54.23,-42.45 129.69,-110.87 172.15,-153.29 40.09,-40.09 87.27,-75.47 101.4,-75.47 14.16,0 188.67,-120.28 384.42,-268.86 407.99,-306.59 499.95,-358.46 721.63,-405.63 306.56,-63.67 254.7,-75.47 1547.02,320.72 2841.74,870.21 2917.21,893.81 2997.39,955.11 94.32,70.75 167.43,202.8 188.67,337.24 42.43,264.11 -200.47,547.12 -466.96,547.12 -61.31,0 -525.88,-129.72 -1198.01,-330.16 -2681.36,-808.9 -2436.08,-740.51 -2513.91,-705.14 -148.57,70.75 -181.59,287.71 -54.25,379.67 84.91,63.69 3492.62,1103.69 3671.85,1120.18 191.03,18.88 407.99,-40.07 589.58,-157.99 157.99,-101.4 264.11,-224.04 353.74,-417.43 56.61,-122.61 63.67,-162.71 63.67,-384.39 0,-233.48 -4.72,-259.42 -75.47,-403.27 -89.6,-183.95 -273.55,-374.98 -424.48,-445.72 -58.95,-28.29 -995.21,-327.8 -2080.01,-665.02l-1971.51 -613.18 -294.79 -11.77c-490.54,-21.24 -735.79,70.75 -1268.76,469.3 -174.51,129.69 -320.72,228.76 -327.8,221.68 -7.08,-7.08 4.72,-80.19 25.93,-165.1 66.05,-266.47 42.45,-417.4 -94.32,-596.63 -110.84,-143.85 -28.29,-117.92 -1995.11,-617.87 -497.59,-127.36 -886.73,-214.6 -955.11,-214.6 -61.31,0 -155.63,21.21 -207.52,44.79l-0.03 0.06z"/>
 </g>
</svg>
