<?xml version="1.0" encoding="UTF-8"?>
<!DOCTYPE svg PUBLIC "-//W3C//DTD SVG 1.1//EN" "http://www.w3.org/Graphics/SVG/1.1/DTD/svg11.dtd">
<!-- Creator: CorelDRAW 2020 (64 Bit) -->
<svg xmlns="http://www.w3.org/2000/svg" xml:space="preserve" width="127.712mm" height="26.914mm" version="1.1" style="shape-rendering:geometricPrecision; text-rendering:geometricPrecision; image-rendering:optimizeQuality; fill-rule:evenodd; clip-rule:evenodd"
viewBox="0 0 13301.41 2803.13"
 xmlns:xlink="http://www.w3.org/1999/xlink"
 xmlns:xodm="http://www.corel.com/coreldraw/odm/2003">
 <defs>
  <style type="text/css">
   <![CDATA[
    .fil0 {fill:#354B9C;fill-rule:nonzero}
    .fil1 {fill:url(#id0)}
   ]]>
  </style>
  <linearGradient id="id0" gradientUnits="userSpaceOnUse" x1="1524.63" y1="2738.83" x2="1524.63" y2="0.01">
   <stop offset="0" style="stop-opacity:1; stop-color:#354B9C"/>
   <stop offset="0.701961" style="stop-opacity:1; stop-color:#393668"/>
   <stop offset="1" style="stop-opacity:1; stop-color:#393668"/>
  </linearGradient>
 </defs>
 <g id="Camada_x0020_1">
  <metadata id="CorelCorpID_0Corel-Layer"/>
  <path class="fil0" d="M3599.56 2088.27l0 -1373.39c0,-81.57 55.12,-132.27 152.11,-132.27 79.36,0 130.07,35.28 147.71,92.59 35.28,-35.28 121.21,-92.59 240.26,-92.59 97,0 163.13,30.86 196.2,112.43 13.23,-28.66 110.27,-112.43 253.53,-112.43 145.5,0 220.46,70.54 220.46,275.56l0 1230.1c0,81.56 -55.12,132.27 -149.92,132.27 -97,0 -152.11,-50.71 -152.11,-132.27l0 -1157.35c0,-66.14 -28.65,-99.2 -74.95,-99.2 -28.66,0 -55.12,15.44 -72.75,37.48l0 1219.07c0,81.56 -57.32,132.27 -152.11,132.27 -97.01,0 -152.11,-50.71 -152.11,-132.27l0 -1157.35c0,-66.14 -28.62,-99.2 -72.75,-99.2 -33.04,0 -61.69,17.64 -79.33,41.85l0 1214.71c0,81.56 -57.31,132.27 -152.11,132.27 -97,0 -152.11,-50.71 -152.11,-132.27z"/>
  <path class="fil0" d="M4948.75 2026.54l0 -1249.94c0,-119 66.14,-185.18 185.18,-185.18l266.75 0c77.12,0 130.03,50.71 130.03,143.33 0,90.38 -52.91,143.26 -130.03,143.26l-143.33 0 0 332.89 116.84 0c68.34,0 116.88,48.49 116.88,127.86 0,81.57 -48.53,130.07 -116.88,130.07l-116.84 0 0 456.3 136.68 0c77.2,0 130.07,52.95 130.07,143.33 0,90.38 -52.88,143.26 -130.07,143.26l-260.1 0c-119.05,0 -185.18,-66.14 -185.18,-185.18z"/>
  <path class="fil0" d="M5654.18 2026.54l0 -1249.94c0,-119 66.14,-185.18 185.18,-185.18l266.74 0c77.12,0 130.03,50.71 130.03,143.33 0,90.38 -52.91,143.26 -130.03,143.26l-143.32 0 0 332.89 116.84 0c68.34,0 116.88,48.49 116.88,127.86 0,81.57 -48.53,130.07 -116.88,130.07l-116.84 0 0 456.3 136.68 0c77.2,0 130.06,52.95 130.06,143.33 0,90.38 -52.87,143.26 -130.06,143.26l-260.1 0c-119.05,0 -185.18,-66.14 -185.18,-185.18z"/>
  <path class="fil0" d="M6659.38 1323.33l77.2 0c44.09,0 70.54,-26.5 70.54,-74.96l0 -328.47c0,-48.5 -26.45,-79.36 -70.54,-79.36l-77.2 0 0 482.79zm-299.78 764.9l0 -1316.04c0,-119 66.14,-185.18 185.18,-185.18l216.04 0c227.03,0 346.07,110.22 346.07,324.07l0 335.06c0,213.88 -119.05,321.86 -346.07,321.86l-101.44 0 0 520.24c0,79.39 -55.08,127.9 -149.87,127.9 -94.79,0 -149.91,-48.5 -149.91,-127.9z"/>
  <path class="fil0" d="M7221.57 2030.93l0 -1309.47c0,-83.74 57.31,-134.44 154.32,-134.44 97,0 154.28,50.7 154.28,134.44l0 1208.05 97 0c72.79,0 123.45,55.12 123.45,143.33 0,90.38 -52.91,143.26 -130.06,143.26l-213.8 0c-119.05,0 -185.18,-66.14 -185.18,-185.18z"/>
  <path class="fil0" d="M7849.85 2026.54l0 -1249.94c0,-119 66.14,-185.18 185.18,-185.18l266.74 0c77.12,0 130.07,50.71 130.07,143.33 0,90.38 -52.95,143.26 -130.07,143.26l-143.33 0 0 332.89 116.85 0c68.33,0 116.88,48.49 116.88,127.86 0,81.57 -48.55,130.07 -116.88,130.07l-116.85 0 0 456.3 136.69 0c77.2,0 130.06,52.95 130.06,143.33 0,90.38 -52.87,143.26 -130.06,143.26l-260.1 0c-119.05,0 -185.18,-66.14 -185.18,-185.18z"/>
  <path class="fil0" d="M8680.82 1943.87l0 -240.3c0,-37.47 28.66,-63.93 63.94,-63.93 35.27,0 63.93,26.45 63.93,63.93l0 246.91c0,105.82 52.91,160.92 154.32,160.92l22.04 0c103.62,0 156.53,-57.35 156.53,-160.92l0 -260.14c0,-127.87 -30.9,-191.79 -172,-304.23l-55.08 -41.85c-167.55,-134.48 -220.46,-231.48 -220.46,-403.43l0 -83.77c0,-180.78 92.59,-275.57 257.93,-275.57l44.1 0c167.54,0 260.1,92.59 260.1,275.57l0 196.2c0,35.28 -28.62,63.93 -63.9,63.93 -35.28,0 -63.93,-28.65 -63.93,-63.93l0 -198.45c0,-101.37 -50.71,-163.09 -143.3,-163.09l-22.04 0c-92.59,0 -141.09,63.93 -141.09,163.09l0 92.63c0,125.66 30.86,187.35 171.95,299.78l52.91 41.92c171.95,132.24 222.66,231.45 222.66,405.6l0 249.12c0,187.38 -94.83,277.77 -273.36,277.77l-44.1 0c-176.36,0 -271.16,-90.39 -271.16,-277.77z"/>
  <path class="fil0" d="M9542.83 2154.4l0 -1448.35 -127.86 0c-33.07,0 -59.56,-26.45 -59.56,-61.72 0,-30.83 26.5,-57.32 59.56,-57.32l387.95 0c30.87,0 57.36,26.5 57.36,57.32 0,35.27 -26.49,61.72 -57.36,61.72l-130.06 0 0 1448.35c0,35.23 -30.86,61.72 -63.9,61.72 -35.27,0 -66.14,-26.49 -66.14,-61.72z"/>
  <path class="fil0" d="M10058.66 1262.67l324.04 0c-4.42,-240.26 -35.28,-354.9 -119.05,-480.55l-37.44 -50.7 -8.85 0 -37.44 50.7c-83.78,125.66 -116.88,240.3 -121.25,480.55zm-63.93 958.97c-35.28,0 -63.94,-26.5 -63.94,-61.73l0 -769.39c0,-434.25 39.68,-537.87 224.86,-773.75 15.44,-19.84 30.83,-35.28 66.1,-35.28 33.07,0 50.7,15.44 66.14,35.28 187.39,240.3 224.86,343.91 224.86,773.75l0 769.39c0,35.23 -30.83,61.73 -63.93,61.73 -35.28,0 -66.14,-26.5 -66.14,-61.73l0 -778.2 -324.04 0 0 778.2c0,35.23 -28.66,61.73 -63.93,61.73z"/>
  <path class="fil0" d="M10858.88 1257.15l178.53 0c99.25,0 152.11,-52.88 152.11,-152.11l0 -242.46c0,-94.8 -50.7,-156.52 -152.11,-156.52l-178.53 0 0 551.1zm-127.87 897.24l0 -1481.38c0,-55.11 30.83,-86.01 83.77,-86.01l231.48 0c178.54,0 273.32,92.59 273.32,268.95l0 249.08c0,94.79 -35.27,174.19 -119.05,209.47 83.78,35.27 119.05,110.22 119.05,209.39l0 630.5c0,35.23 -30.86,61.73 -63.93,61.73 -35.28,0 -66.14,-26.5 -66.14,-61.73l0 -628.29c0,-99.2 -52.87,-154.32 -152.11,-154.32l-178.53 0 0 782.61c0,35.23 -28.66,61.73 -63.94,61.73 -35.27,0 -63.93,-26.5 -63.93,-61.73z"/>
  <path class="fil0" d="M11599.58 2154.4l0 -1448.35 -127.83 0c-33.11,0 -59.56,-26.45 -59.56,-61.72 0,-30.83 26.45,-57.32 59.56,-57.32l387.96 0c30.86,0 57.31,26.5 57.31,57.32 0,35.27 -26.45,61.72 -57.31,61.72l-130.07 0 0 1448.35c0,35.23 -30.86,61.72 -63.93,61.72 -35.28,0 -66.14,-26.49 -66.14,-61.72z"/>
  <path class="fil0" d="M12069.11 2125.74l0 -1448.31c0,-55.11 30.87,-86.01 83.78,-86.01l313.04 0c33.07,0 61.7,26.49 61.7,59.52 0,35.28 -28.63,61.73 -61.7,61.73l-268.95 0 0 546.72 238.09 0c33.04,0 57.31,26.45 57.31,59.52 0,35.28 -24.28,59.52 -57.31,59.52l-238.09 0 0 712.03 279.98 0c33.07,0 61.69,26.45 61.69,59.52 0,35.27 -28.62,61.72 -61.69,61.72l-324.07 0c-52.91,0 -83.78,-30.86 -83.78,-85.98z"/>
  <path class="fil0" d="M12840.7 1257.15l178.54 0c99.24,0 152.11,-52.88 152.11,-152.11l0 -242.46c0,-94.8 -50.7,-156.52 -152.11,-156.52l-178.54 0 0 551.1zm-127.86 897.24l0 -1481.38c0,-55.11 30.83,-86.01 83.77,-86.01l231.48 0c178.54,0 273.32,92.59 273.32,268.95l0 249.08c0,94.79 -35.27,174.19 -119.05,209.47 83.78,35.27 119.05,110.22 119.05,209.39l0 630.5c0,35.23 -30.86,61.73 -63.93,61.73 -35.28,0 -66.14,-26.5 -66.14,-61.73l0 -628.29c0,-99.2 -52.88,-154.32 -152.11,-154.32l-178.54 0 0 782.61c0,35.23 -28.65,61.73 -63.93,61.73 -35.28,0 -63.93,-26.5 -63.93,-61.73z"/>
  <path class="fil1" d="M1483.42 0.44c-809.08,19.09 -1467.74,680.98 -1483.14,1490.11l0 0c-9.25,485.9 209.57,920.91 556.59,1205.44l0 0c210.28,172.43 526.15,131.72 683.37,-90.14l0 0c228.38,-322.32 193.23,-741.88 193.23,-741.88l0 0 173.38 0c0,0 -35.17,419.63 193.28,741.92l0 0c156.73,221.2 471.75,263.06 681.64,91.48l0 0c340.91,-278.73 558.55,-702.48 558.55,-1177.2l0 0c0,-839.49 -680.66,-1520.07 -1520.13,-1520.15l0 0c-12.27,0 -24.43,0.15 -36.78,0.44zm-397.13 1187.81c-56.95,-307.07 -6.12,-678.83 398.1,-975.52l0 0c21.33,-15.65 50.21,-15.65 71.52,0l0 0c404.22,296.7 455.07,668.45 398.13,975.52l0 0c126.83,118.59 144.33,474.95 144.33,474.95l0 0 -306.3 -29.34c-49.72,92.09 -90.25,147.12 -90.25,147.12l0 0 -363.33 0c0,0 -40.54,-55.03 -90.25,-147.12l0 0 -306.3 29.34c0,0 17.49,-356.36 144.34,-474.95zm324.11 -462.74c-12.68,2.93 -25.53,6.63 -38.43,11.5l0 0c-11.28,4.26 -21.98,9.12 -32.13,14.4l0 0c-0.08,0.07 -0.19,0.08 -0.25,0.16l0 0c-4.95,2.55 -9.76,5.24 -14.38,8.03l0 0c-0.2,0.12 -0.41,0.25 -0.61,0.37l0 0c-23.63,14.25 -43.22,30.96 -57.53,48.64l0 0c-0.33,0.42 -0.65,0.82 -0.96,1.22l0 0c-2.4,3 -4.62,6.02 -6.67,9.06l0 0c-0.45,0.67 -0.91,1.31 -1.37,2.01l0 0c-1.84,2.83 -3.54,5.67 -5.11,8.52l0 0c-0.4,0.75 -0.84,1.49 -1.24,2.24l0 0c-1.57,2.96 -2.93,5.92 -4.18,8.89l0 0c-0.25,0.57 -0.52,1.14 -0.75,1.7l0 0c-2.79,7.03 -4.66,14.02 -5.54,20.93l0 0c-0.15,0.97 -0.17,1.91 -0.25,2.87l0 0c-0.15,1.78 -0.4,3.6 -0.42,5.36l0 0c0,0 0.15,0.12 0.17,0.12l0 0c-0.1,8.14 1.09,16.11 4.01,23.68l0 0c13.13,34.04 56.75,42.26 109.08,41.4l0 0 0.03 0c1.92,0.78 3.87,1.53 5.95,2.1l0 0 -90.87 191.67c-12.51,26.37 6.73,56.75 35.9,56.75l0 0 0.19 0 146.04 0 0.21 0 59.19 -91.16c2.27,-3.46 6.06,-4.93 9.72,-4.59l0 0c3.65,-0.33 7.44,1.14 9.69,4.59l0 0 59.21 91.16 0.21 0 146.04 0 0.19 0c29.17,0 48.41,-30.38 35.9,-56.75l0 0 -90.85 -191.67c2.05,-0.57 4.02,-1.32 5.94,-2.1l0 0 0.02 0c52.33,0.86 95.95,-7.36 109.09,-41.4l0 0c2.91,-7.57 4.1,-15.54 4,-23.68l0 0c0.02,0 0.17,-0.12 0.17,-0.12l0 0c-0.02,-1.76 -0.27,-3.58 -0.42,-5.36l0 0c-0.1,-0.97 -0.12,-1.91 -0.23,-2.87l0 0c-0.91,-6.92 -2.77,-13.9 -5.56,-20.93l0 0c-0.23,-0.56 -0.52,-1.12 -0.75,-1.7l0 0c-1.24,-2.98 -2.62,-5.94 -4.18,-8.89l0 0c-0.4,-0.75 -0.84,-1.49 -1.26,-2.24l0 0c-1.55,-2.85 -3.25,-5.69 -5.11,-8.52l0 0c-0.45,-0.7 -0.91,-1.34 -1.34,-2.01l0 0c-2.08,-3.04 -4.3,-6.06 -6.67,-9.06l0 0c-0.32,-0.4 -0.64,-0.8 -0.97,-1.22l0 0c-14.31,-17.67 -33.9,-34.39 -57.53,-48.64l0 0c-0.21,-0.12 -0.4,-0.25 -0.61,-0.37l0 0c-4.62,-2.79 -9.43,-5.48 -14.36,-8.03l0 0c-0.08,-0.07 -0.19,-0.08 -0.27,-0.16l0 0c-10.18,-5.28 -20.85,-10.14 -32.13,-14.4l0 0c-12.89,-4.86 -25.76,-8.57 -38.44,-11.5l0 0c-1.68,-73.7 -50.11,-132.87 -109.75,-132.87l0 0c-59.66,0 -108.1,59.17 -109.78,132.87l0 0z"/>
 </g>
</svg>
