<?xml version="1.0" encoding="UTF-8"?>
<!DOCTYPE svg PUBLIC "-//W3C//DTD SVG 1.1//EN" "http://www.w3.org/Graphics/SVG/1.1/DTD/svg11.dtd">
<!-- Creator: CorelDRAW 2020 (64 Bit) -->
<svg xmlns="http://www.w3.org/2000/svg" xml:space="preserve" width="11.6188mm" height="25.2943mm" version="1.1" style="shape-rendering:geometricPrecision; text-rendering:geometricPrecision; image-rendering:optimizeQuality; fill-rule:evenodd; clip-rule:evenodd"
viewBox="0 0 710.1 1545.91"
 xmlns:xlink="http://www.w3.org/1999/xlink"
 xmlns:xodm="http://www.corel.com/coreldraw/odm/2003">
 <defs>
  <style type="text/css">
   <![CDATA[
    .fil1 {fill:#354A9B}
    .fil0 {fill:white}
   ]]>
  </style>
 </defs>
 <g id="Camada_x0020_1">
  <metadata id="CorelCorpID_0Corel-Layer"/>
  <rect class="fil0" x="0.91" y="-0" width="708.26" height="1545.91"/>
  <path class="fil1" d="M215.65 564.2c-16.09,3.72 -32.4,8.42 -48.79,14.6l0 0c-14.33,5.41 -27.91,11.58 -40.8,18.29l0 0c-0.11,0.09 -0.24,0.1 -0.32,0.2l0 0c-6.28,3.24 -12.39,6.66 -18.27,10.2l0 0c-0.25,0.15 -0.51,0.31 -0.78,0.47l0 0c-30.01,18.1 -54.88,39.32 -73.06,61.77l0 0c-0.42,0.53 -0.82,1.05 -1.22,1.55l0 0c-3.04,3.81 -5.87,7.65 -8.46,11.5l0 0c-0.57,0.85 -1.15,1.67 -1.75,2.55l0 0c-2.34,3.6 -4.49,7.19 -6.49,10.82l0 0c-0.5,0.95 -1.07,1.89 -1.58,2.85l0 0c-1.99,3.75 -3.72,7.51 -5.3,11.29l0 0c-0.32,0.73 -0.67,1.44 -0.95,2.15l0 0c-3.54,8.93 -5.92,17.8 -7.03,26.59l0 0c-0.19,1.23 -0.21,2.42 -0.32,3.65l0 0c-0.19,2.27 -0.51,4.58 -0.53,6.81l0 0c0,0 0.18,0.16 0.21,0.16l0 0c-0.13,10.34 1.39,20.46 5.09,30.08l0 0c16.68,43.22 72.07,53.67 138.52,52.57l0 0 0.04 0c2.44,0.99 4.92,1.94 7.55,2.67l0 0 -115.39 243.4c-15.88,33.49 8.54,72.07 45.59,72.07l0 0 0.24 0 185.44 0 0.27 0 75.16 -115.77c2.88,-4.39 7.69,-6.25 12.34,-5.83l0 0c4.63,-0.42 9.44,1.44 12.3,5.83l0 0 75.19 115.77 0.26 0 185.46 0 0.24 0c37.04,0 61.47,-38.58 45.59,-72.07l0 0 -115.37 -243.4c2.6,-0.73 5.1,-1.68 7.54,-2.67l0 0 0.02 0c66.45,1.1 121.85,-9.35 138.53,-52.57l0 0c3.69,-9.61 5.21,-19.73 5.08,-30.08l0 0c0.03,0 0.21,-0.16 0.21,-0.16l0 0c-0.02,-2.24 -0.34,-4.55 -0.53,-6.81l0 0c-0.13,-1.23 -0.16,-2.42 -0.29,-3.65l0 0c-1.16,-8.78 -3.52,-17.66 -7.07,-26.59l0 0c-0.29,-0.71 -0.66,-1.42 -0.95,-2.15l0 0c-1.57,-3.78 -3.33,-7.54 -5.3,-11.29l0 0c-0.51,-0.95 -1.08,-1.89 -1.6,-2.85l0 0c-1.97,-3.62 -4.13,-7.22 -6.5,-10.82l0 0c-0.57,-0.89 -1.15,-1.71 -1.71,-2.55l0 0c-2.65,-3.86 -5.46,-7.69 -8.46,-11.5l0 0c-0.41,-0.5 -0.81,-1.02 -1.23,-1.55l0 0c-18.18,-22.45 -43.05,-43.67 -73.07,-61.77l0 0c-0.26,-0.16 -0.5,-0.32 -0.78,-0.47l0 0c-5.87,-3.54 -11.97,-6.96 -18.24,-10.2l0 0c-0.11,-0.09 -0.24,-0.1 -0.35,-0.2l0 0c-12.92,-6.71 -26.48,-12.88 -40.8,-18.29l0 0c-16.37,-6.18 -32.7,-10.88 -48.81,-14.6l0 0c-2.13,-93.59 -63.63,-168.73 -139.38,-168.73l0 0c-75.76,0 -137.27,75.14 -139.4,168.73l0 0z"/>
 </g>
</svg>
