<?xml version="1.0" standalone="no"?>
<!DOCTYPE svg PUBLIC "-//W3C//DTD SVG 20010904//EN"
 "http://www.w3.org/TR/2001/REC-SVG-20010904/DTD/svg10.dtd">
<svg version="1.0" xmlns="http://www.w3.org/2000/svg"
 width="100.000000pt" height="100.000000pt" viewBox="0 0 100.000000 100.000000"
 preserveAspectRatio="xMidYMid meet">

<g transform="translate(0.000000,100.000000) scale(0.100000,-0.100000)"
fill="#FFF" stroke="none">
<path d="M312 774 c-19 -13 -22 -24 -22 -85 l0 -69 -28 0 c-56 0 -62 -19 -62
-207 0 -152 2 -172 18 -186 16 -15 51 -17 290 -17 259 0 273 1 292 20 18 18
20 33 20 183 0 187 -6 207 -66 207 -29 0 -34 3 -34 23 0 14 -22 45 -63 85
l-63 62 -130 0 c-101 0 -134 -3 -152 -16z m258 -39 c0 -62 24 -85 90 -85 l50
0 1 -52 c1 -29 4 -41 6 -25 4 22 9 27 33 27 16 0 31 -4 34 -9 3 -5 -37 -37
-89 -71 -52 -34 -100 -69 -107 -78 -7 -9 31 14 86 52 54 37 104 70 112 73 12
4 14 -21 14 -146 0 -83 -2 -151 -5 -151 -3 0 -68 40 -144 90 -77 50 -145 90
-151 90 -10 0 -243 -161 -265 -183 -18 -18 17 4 133 85 61 43 118 81 126 84
17 6 298 -175 293 -190 -3 -8 -89 -12 -275 -14 -262 -2 -271 -2 -282 18 -6 12
-9 77 -8 170 l3 151 90 -63 c106 -75 115 -81 115 -74 0 3 -45 37 -100 76 -98
70 -113 90 -65 90 17 0 25 -7 28 -22 2 -13 5 21 6 74 1 129 0 128 152 128
l119 0 0 -45z m89 -73 c-57 -4 -79 17 -79 77 l0 45 60 -59 61 -60 -42 -3z"/>
<path d="M393 613 c26 -2 68 -2 95 0 26 2 4 3 -48 3 -52 0 -74 -1 -47 -3z"/>
<path d="M552 573 l1 -48 4 43 4 42 45 0 44 0 0 -44 0 -45 -42 -4 -43 -4 48
-1 47 -2 0 55 0 55 -55 0 -55 0 2 -47z"/>
<path d="M393 573 c26 -2 68 -2 95 0 26 2 4 3 -48 3 -52 0 -74 -1 -47 -3z"/>
<path d="M393 533 c26 -2 68 -2 95 0 26 2 4 3 -48 3 -52 0 -74 -1 -47 -3z"/>
</g>
</svg>
