<?xml version="1.0" encoding="UTF-8"?>
<!DOCTYPE svg PUBLIC "-//W3C//DTD SVG 1.1//EN" "http://www.w3.org/Graphics/SVG/1.1/DTD/svg11.dtd">
<!-- Creator: CorelDRAW 2020 (64 Bit) -->
<svg xmlns="http://www.w3.org/2000/svg" xml:space="preserve" width="84mm" height="84.2mm" version="1.1" style="shape-rendering:geometricPrecision; text-rendering:geometricPrecision; image-rendering:optimizeQuality; fill-rule:evenodd; clip-rule:evenodd"
viewBox="0 0 475471.7 476603.77"
 xmlns:xlink="http://www.w3.org/1999/xlink"
 xmlns:xodm="http://www.corel.com/coreldraw/odm/2003">
 <defs>
  <style type="text/css">
   <![CDATA[
    .str0 {stroke:#373435;stroke-width:0;stroke-miterlimit:22.9256}
    .fil0 {fill:none}
    .fil1 {fill:rgba(0,0,0,0.15)}
   ]]>
  </style>
 </defs>
 <g id="Camada_x0020_1">
  <metadata id="CorelCorpID_0Corel-Layer"/>
  <rect class="fil0" x="-0" y="566.04" width="475471.7" height="475471.7"/>
  <path class="fil1 str0" d="M290822.26 30811.7c45194.72,11536.98 84631.7,37466.04 113149.25,72612.45 14970.57,-4315.47 31509.06,1909.81 39649.81,16009.81 9584.72,16601.32 3896.6,37829.43 -12704.72,47414.15 -16601.32,9584.72 -37829.43,3896.6 -47414.15,-12704.72 -7322.26,-12682.08 -5730.57,-28063.02 2829.62,-38892.45 -24993.96,-30180.57 -59006.04,-52621.7 -97908.11,-63193.02 1695.28,-5283.96 2608.3,-10917.17 2594.15,-16766.04 -3.4,-1509.06 -71.32,-3002.83 -195.85,-4480.19zm-127203.96 288023.77c48766.98,0 97534.53,0 146301.51,0 70.19,-16921.13 826.42,-43198.87 -11453.77,-55708.87 -6027.74,-6139.25 -11184.34,-6024.34 -18875.66,-7767.17 -10910.38,14346.79 -21822.45,28692.45 -32733.96,43039.81l-20174.72 0c-10911.51,-14347.36 -21823.58,-28693.02 -32733.96,-43039.81 -7691.32,1742.83 -12384.91,1627.92 -18412.08,7767.17 -12279.62,12508.87 -11987.55,38787.74 -11917.36,55708.87zm-13566.23 -36533.21l-30283.58 0c-63.4,-15233.77 -744.34,-38891.32 10311.51,-50154.34 5426.6,-5526.79 10069.25,-5423.21 16993.58,-6992.26l18906.23 24858.68c-8616.79,8040.57 -13343.77,19581.51 -15927.74,32287.92zm29051.32 -40415.09l-24412.64 -32096.6c-7672.08,-262.08 -14658.68,331.13 -21968.49,2973.96 -31776.23,11487.74 -29148.68,55614.34 -29148.68,84781.13 14698.3,0 29489.43,31.13 44323.58,76.42 -1186.42,13416.23 -877.36,27091.7 -877.36,38608.3 59833.02,0 121056.23,-463.58 180888.68,-463.58 0,-11421.51 361.7,-24909.06 -716.04,-38143.58 14962.64,-45.85 29881.7,-77.55 44706.23,-77.55 0,-29166.79 2627.55,-73293.4 -29148.68,-84781.13 -7309.81,-2642.83 -14296.42,-3236.04 -21968.49,-2973.96l-24430.19 32120.38c-273.4,-104.72 -542.26,-213.96 -820.19,-314.72 -8119.25,-2935.47 -15879.62,-3594.34 -24401.32,-3303.4l-32484.91 42710.94 -3751.7 0 -32484.91 -42710.94c-8521.7,-290.94 -14428.3,367.92 -22546.98,3303.4 -256.98,92.83 -504.91,194.15 -757.92,290.94zm5886.23 -110570.94c-22875.28,0 -41418.11,18543.4 -41418.11,41418.68 0,22874.72 18542.83,41418.11 41418.11,41418.11 3207.74,0 6330,-365.09 9327.74,-1055.66 6490.19,17538.68 23363.21,30041.32 43158.11,30041.32 19837.92,0 36742.08,-12555.85 43201.13,-30154.53 3143.77,763.58 6427.36,1168.87 9806.04,1168.87 22875.28,0 41418.11,-18543.4 41418.11,-41418.11 0,-22875.28 -18542.83,-41418.68 -41418.11,-41418.68 -16135.47,0 -30112.64,9228.68 -36949.81,22694.15 -4998.68,-1862.83 -10408.87,-2882.83 -16057.36,-2882.83 -5483.77,0 -10742.83,961.13 -15619.25,2721.51 -6866.6,-13377.17 -20795.66,-22532.83 -36866.6,-22532.83zm6483.96 66083.77c-2070.57,542.83 -4243.58,832.08 -6483.96,832.08 -14081.89,0 -25497.74,-11415.28 -25497.74,-25497.17 0,-14081.89 11415.85,-25497.17 25497.74,-25497.17 10164.34,0 18938.49,5949.06 23033.21,14554.53 -10114.53,8439.06 -16552.64,21137.55 -16552.64,35340.57l3.4 267.17zm133676.6 84902.26l30553.58 0c63.4,-15233.77 744.34,-38891.32 -10311.51,-50154.34 -5426.6,-5526.79 -10069.25,-5423.21 -16993.58,-6992.26l-18938.49 24901.13c8577.74,8044.53 13206.23,19565.09 15690,32245.47zm-57847.92 -120193.02c9898.87,8438.49 16178.49,20996.6 16178.49,35023.58l-1.7 124.53c2225.09,634.53 4574.72,974.72 7003.58,974.72 14081.89,0 25497.74,-11415.28 25497.74,-25497.17 0,-14081.89 -11415.85,-25497.17 -25497.74,-25497.17 -10288.3,0 -19151.89,6095.66 -23180.38,14871.51zm-29826.79 6703.02c15641.32,0 28321.13,12679.25 28321.13,28320.57 0,15641.89 -12679.81,28321.13 -28321.13,28321.13 -15641.32,0 -28321.13,-12679.25 -28321.13,-28321.13 0,-15641.32 12679.81,-28320.57 28321.13,-28320.57zm162915.85 -24419.43c-4199.43,-7274.15 -1707.17,-16574.72 5566.42,-20774.72 7274.15,-4199.43 16574.72,-1707.17 20774.72,5566.42 4199.43,7274.15 1707.17,16574.72 -5566.42,20774.72 -7274.15,4199.43 -16574.72,1707.17 -20774.72,-5566.42zm-16888.87 178067.55c7303.58,-12649.81 21366.79,-18961.7 34992.45,-17010 7807.36,-20951.89 12082.64,-43623.96 12082.64,-67296.79 0,-16779.06 -2145.85,-33056.04 -6173.21,-48574.53 4125.85,-848.49 8218.87,-2188.3 12199.81,-4056.79 2636.6,-1237.36 5124.91,-2660.94 7462.08,-4244.15 4981.7,18112.08 7652.83,37180.75 7652.83,56875.47 0,26996.04 -5005.47,52821.51 -14130.57,76604.72 11282.26,10801.7 14190.57,28281.51 6032.83,42411.51 -9584.72,16601.32 -30812.83,22289.43 -47414.15,12704.72 -16601.32,-9584.72 -22289.43,-30812.83 -12704.72,-47414.15zm16888.87 9750.57c4200,-7273.58 13500.57,-9765.85 20774.15,-5566.42 7274.15,4200 9766.42,13500.57 5566.42,20774.15 -4199.43,7274.15 -13500,9766.42 -20774.15,5566.98 -7273.58,-4200 -9765.85,-13500.57 -5566.42,-20774.72zm-162655.47 74407.92c14567.55,0 27037.36,8976.23 32185.47,21697.36 39865.47,-6700.75 75577.92,-25634.15 103153.02,-52805.66 2773.02,3152.26 5954.72,6032.83 9537.17,8557.92 2388.68,1683.96 4866.79,3145.47 7409.43,4394.72 -31323.4,31731.51 -72486.79,53723.21 -118541.89,61021.13 -3669.06,15233.77 -17383.02,26553.4 -33743.21,26553.4 -19169.43,0 -34709.43,-15540 -34709.43,-34709.43 0,-19169.43 15540,-34709.43 34709.43,-34709.43zm0 19501.7c8399.43,0 15207.74,6808.3 15207.74,15207.74 0,8399.43 -6808.3,15207.74 -15207.74,15207.74 -8399.43,0 -15207.74,-6808.3 -15207.74,-15207.74 0,-8399.43 6808.3,-15207.74 15207.74,-15207.74zm-205885.47 -68950.75c-9584.72,-16601.32 -3896.6,-37829.43 12704.72,-47414.15 16601.32,-9584.72 37829.43,-3896.6 47414.15,12704.72 7287.74,12622.64 5744.15,27918.68 -2711.32,38739.62 24970.19,30091.7 58913.21,52471.13 97727.55,63032.26 -1719.06,5296.98 -2650.75,10947.74 -2649.06,16817.55 0.57,1485.85 62.83,2957.55 180,4413.4 -45037.92,-11527.92 -84349.25,-37348.87 -112823.77,-72340.19 -15020.38,4424.72 -31666.98,-1793.21 -39842.26,-15953.21zm16888.87 -9750.57c-4199.43,-7274.15 -1707.17,-16574.72 5566.42,-20774.72 7274.15,-4199.43 16574.72,-1707.17 20774.72,5566.42 4199.43,7274.15 1707.17,16574.72 -5566.42,20774.72 -7274.15,4199.43 -16574.72,1707.17 -20774.72,-5566.42zm-17375.09 -52541.89c-4955.09,-18066.23 -7611.51,-37083.96 -7611.51,-56723.77 0,-26913.96 4973.21,-52665.28 14045.66,-76389.06 -11212.08,-10807.92 -14085.28,-28236.23 -5947.92,-42330.57 9584.72,-16601.32 30812.83,-22289.43 47414.15,-12704.72 16601.32,9584.72 22289.43,30812.83 12704.72,47414.15 -7322.26,12682.08 -21438.68,18995.09 -35097.17,16995.85 -7740.57,20872.64 -11977.92,43447.92 -11977.92,67014.34 0,16756.98 2139.62,33014.15 6156.79,48514.53 -4957.36,993.4 -9858.11,2695.47 -14563.02,5158.87 -1783.02,933.4 -3489.62,1954.53 -5123.77,3050.38zm206371.7 -294311.32c19169.43,0 34709.43,15540 34709.43,34709.43 0,19169.43 -15540,34709.43 -34709.43,34709.43 -14672.83,0 -27219.62,-9105.28 -32298.11,-21973.58 -39739.25,6704.72 -75347.55,25564.53 -102873.4,52622.83 -2557.92,-2870.38 -5457.74,-5514.91 -8696.6,-7866.23 -2676.23,-1942.64 -5470.19,-3605.66 -8346.79,-4995.85 31331.32,-31710.57 72495.28,-53680.19 118546.98,-60961.13 3778.87,-15078.11 17418.68,-26244.91 33667.92,-26244.91zm0 19501.7c8399.43,0 15207.74,6808.3 15207.74,15207.74 0,8399.43 -6808.3,15207.74 -15207.74,15207.74 -8399.43,0 -15207.74,-6808.3 -15207.74,-15207.74 0,-8399.43 6808.3,-15207.74 15207.74,-15207.74zm-188996.04 109117.36c4199.43,-7274.15 13500,-9766.42 20774.15,-5566.98 7273.58,4200 9765.85,13500.57 5566.42,20774.72 -4200,7273.58 -13500.57,9765.85 -20774.15,5566.42 -7274.15,-4200 -9766.42,-13500.57 -5566.42,-20774.15z"/>
 </g>
</svg>
