<?xml version="1.0" encoding="UTF-8"?>
<!DOCTYPE svg PUBLIC "-//W3C//DTD SVG 1.1//EN" "http://www.w3.org/Graphics/SVG/1.1/DTD/svg11.dtd">
<!-- Creator: CorelDRAW 2020 (64 Bit) -->
<svg xmlns="http://www.w3.org/2000/svg" xml:space="preserve" width="59.725mm" height="53.7727mm" version="1.1" style="shape-rendering:geometricPrecision; text-rendering:geometricPrecision; image-rendering:optimizeQuality; fill-rule:evenodd; clip-rule:evenodd"
viewBox="0 0 2700.81 2431.64"
 xmlns:xlink="http://www.w3.org/1999/xlink"
 xmlns:xodm="http://www.corel.com/coreldraw/odm/2003">
 <defs>
  <style type="text/css">
   <![CDATA[
    .fil0 {fill:black;fill-rule:nonzero}
   ]]>
  </style>
 </defs>
 <g id="Camada_x0020_1">
  <metadata id="CorelCorpID_0Corel-Layer"/>
  <g id="_2304961573600">
   <g>
    <path class="fil0" d="M1376.95 1.26c-113.31,10.37 -208.17,35.34 -301.51,79.89 -95.25,45.7 -163.24,94.1 -238.13,168.99 -132.51,133.28 -213.55,298.43 -238.52,485.87l-6.53 50.32 -79.5 0c-82.96,0 -88.72,1.15 -93.72,17.67 -2.69,8.45 4.22,20.74 219.7,393.3 112.15,193.96 116.76,200.88 134.04,189.74 3.45,-1.92 18.44,-25.35 33.8,-51.47 15.36,-26.5 50.7,-87.95 78.74,-136.35 182.82,-316.49 222.77,-386.39 222.77,-391.77 0,-3.07 -3.46,-9.22 -7.68,-13.44 -7.3,-7.29 -12.68,-7.68 -97.56,-7.68l-90.26 0 2.3 -14.6c24.58,-171.69 132.89,-321.86 288.45,-399.83 30.72,-15.37 93.33,-36.49 133.27,-44.56 94.1,-19.21 206.64,-7.68 299.58,30.73 122.91,50.7 228.15,152.86 280,272.32 6.91,15.75 14.6,31.49 17.28,34.57 2.69,3.07 9.22,26.88 14.6,53 9.22,41.87 10.37,56.07 10.37,125.98 0.38,72.98 -0.38,81.81 -9.98,119.07 -23.04,91.41 -54.93,153.63 -115.61,225.84 -71.82,85.27 -182.05,149.41 -295.74,172.07 -67.6,13.06 -158.24,10.75 -227.37,-6.53 -73.36,-18.05 -131.74,-46.86 -198.95,-97.94 -49.55,-37.64 -57.62,-39.56 -77.97,-19.21 -20.74,20.74 -18.44,33.41 10.37,60.69 29.57,28.42 90.26,68.36 135.58,89.49 141.34,66.06 293.44,75.67 444,28.04 119.84,-38.03 231.22,-120.22 305.34,-225.84 129.82,-184.75 144.8,-429.02 38.41,-629.13 -56.46,-106.01 -158.63,-204.33 -267.32,-257.33 -39.17,-18.82 -101.4,-39.94 -141.73,-48.4 -47.24,-9.6 -120.6,-14.21 -159.39,-9.98 -18.82,1.92 -43.02,4.61 -53.77,5.76 -26.88,2.69 -51.85,8.45 -94.1,21.89 -205.1,66.06 -360.27,239.67 -402.9,451.3 -4.61,21.12 -8.07,44.17 -8.07,50.7 0,10.37 -1.53,11.91 -9.6,11.91 -13.06,0 -31.5,9.6 -36.49,18.82 -4.99,9.6 -4.99,29.57 0,39.17 9.22,16.9 21.51,18.82 111.77,18.82 70.67,0 84.5,0.77 82.96,5.38 -1.92,5 -45.32,81.04 -133.27,232.76 -23.81,41.1 -53.77,93.33 -66.83,115.99 -12.68,22.66 -24.2,41.48 -25.35,41.1 -1.15,0 -33.03,-53.77 -70.67,-119.83 -38.03,-66.06 -87.57,-152.1 -110.62,-191.66 -23.04,-39.56 -42.63,-74.51 -43.78,-77.59 -1.92,-4.61 6.14,-5.76 46.09,-6.91 41.1,-1.15 49.16,-2.3 58.38,-9.22 21.89,-16.13 24.97,-24.2 28.81,-74.13 17.67,-236.21 154.4,-460.51 357.58,-586.5 249.65,-154.78 559.61,-155.93 809.65,-3.84 121.37,74.13 220.84,182.82 285.75,312.26 44.94,90.26 70.29,180.14 78.74,281.15 3.07,38.41 3.84,40.71 15.36,51.08 18.82,16.9 43.02,13.06 56.08,-9.22 5.76,-9.98 6.53,-16.9 4.22,-44.94 -10.37,-134.81 -54.16,-266.55 -127.13,-384.08 -124.83,-201.26 -336.46,-342.22 -574.2,-382.93 -53.77,-9.22 -155.94,-14.6 -199.72,-10.76l0 0z"/>
    <path class="fil0" d="M1379.63 431.05c-31.49,11.91 -64.53,44.55 -73.36,72.97 -1.54,4.23 -10.75,12.68 -20.74,19.21 -59.53,37.26 -96.02,101.01 -104.08,181.29 -6.91,66.45 6.15,127.9 36.1,171.69l16.13 23.81 -24.58 26.5c-34.95,38.41 -45.32,61.07 -45.32,99.86 0,25.74 1.53,34.18 10.75,52.62 9.98,20.36 48.01,60.69 56.84,60.69 3.46,0 24.97,13.83 30.34,19.21 1.15,1.15 8.45,4.99 16.13,8.45 19.21,8.84 29.19,17.67 38.03,33.8 8.84,16.51 31.5,42.25 37.26,42.25 2.3,0 11.91,3.84 21.12,8.84 14.21,7.68 23.04,9.22 60.69,9.98 31.11,0.38 47.24,-0.77 55.31,-4.61 6.53,-3.07 17.28,-8.06 23.81,-11.14 16.9,-7.68 48.78,-38.41 54.93,-52.62 3.08,-7.68 11.91,-15.75 24.97,-23.04 34.18,-19.59 68.36,-54.16 86.03,-88.34 21.51,-41.87 28.43,-72.97 28.43,-129.05 0,-73.74 -18.82,-125.21 -61.46,-168.99l-21.12 -21.51 9.6 -10.37c20.35,-22.28 45.32,-61.07 50.7,-79.12 18.82,-62.99 -8.84,-117.91 -76.82,-152.87 -24.58,-12.29 -33.41,-19.2 -38.02,-28.81 -9.22,-19.59 -32.65,-43.01 -53.77,-54.16 -18.05,-9.22 -23.81,-10.37 -71.44,-11.14 -37.64,-0.77 -55.69,0.38 -66.45,4.61l0 0zm102.55 72.97c15.75,7.68 25.35,23.81 25.35,43.4 0,14.6 0.77,15.36 13.44,17.67 20.35,3.84 81.81,36.1 88.72,46.86 15.36,23.04 5.76,49.55 -31.5,88.72 -19.97,21.13 -32.27,21.51 -72.59,2.31 -25.73,-11.91 -33.41,-13.83 -57.23,-13.83 -30.73,0 -49.93,7.3 -54.54,21.13 -3.45,11.14 -3.45,35.34 0,41.1 5.38,8.06 24.58,15.36 77.59,29.19 91.41,23.43 121.37,42.63 146.72,93.33 14.21,29.19 14.21,29.57 14.21,77.2 0,56.07 -5.76,78.35 -28.04,111.38 -16.13,23.81 -48.39,46.86 -79.12,56.46l-19.97 6.14 0 20.36c0.38,16.51 -1.53,22.28 -8.83,30.34 -5.38,5.38 -12.29,9.98 -16.13,9.98 -3.84,0 -8.07,1.92 -9.22,3.84 -3.45,5.76 -69.52,1.54 -77.2,-4.61 -23.43,-18.82 -25.35,-22.28 -23.81,-40.33l1.15 -17.67 -19.97 -6.91c-34.18,-11.52 -67.21,-31.11 -90.26,-53.39 -20.74,-19.97 -22.28,-22.66 -22.28,-39.17 0,-15.37 2.69,-20.74 19.21,-41.87 22.66,-28.81 35.72,-38.03 53,-38.03 15.37,0 25.35,4.99 41.1,19.97 25.74,25.35 69.9,37.64 106.39,30.34 28.81,-6.14 39.56,-17.67 39.56,-43.01 0,-29.57 -0.77,-29.96 -107.54,-55.69 -52.62,-12.68 -71.44,-21.89 -96.4,-48.4 -24.58,-26.12 -36.1,-54.92 -38.79,-99.09 -3.45,-57.23 10.37,-104.47 40.71,-138.66 17.67,-19.97 57.62,-45.7 70.67,-45.7 3.84,0 6.15,-6.15 7.68,-19.59 3.08,-24.2 10.75,-36.87 26.88,-43.78 16.9,-7.3 65.68,-7.3 81.04,0l0 0z"/>
    <path class="fil0" d="M2227.3 905.77c-10.37,5.38 -20.74,23.04 -20.74,36.1 0,6.91 4.61,14.98 13.44,23.81 11.91,11.91 15.37,13.44 27.66,11.52 44.55,-7.3 45.32,-67.98 0.77,-73.74 -7.3,-1.15 -16.52,0 -21.13,2.3z"/>
    <path class="fil0" d="M2230.76 1041.74c-18.05,7.68 -24.19,19.59 -24.19,47.24 0,28.04 7.29,45.32 21.51,50.7 16.51,6.53 27.65,4.22 40.33,-6.91 10.37,-9.22 12.68,-14.21 14.21,-32.26 1.92,-22.28 -3.84,-45.71 -12.68,-53 -9.98,-8.07 -26.88,-10.75 -39.17,-5.76l-0 -0z"/>
    <path class="fil0" d="M2217.7 1216.11c-31.5,31.5 10.75,80.27 48.4,55.69 4.99,-3.46 11.14,-11.91 13.44,-19.21 12.68,-37.64 -33.41,-64.91 -61.83,-36.49z"/>
    <path class="fil0" d="M241.98 1400.47c-31.88,14.98 -44.17,33.41 -58.38,86.8 -55.69,212.78 -120.22,475.5 -117.91,483.56 3.84,15.37 19.2,27.27 36.48,27.27 28.04,0 29.96,-4.23 66.83,-149.79 18.05,-71.82 46.86,-184.36 63.76,-250.04 16.51,-65.68 30.34,-120.6 30.34,-121.75 0,-1.54 3.45,-4.23 7.68,-6.53 6.15,-3.07 14.59,-2.31 35.72,3.45 14.98,4.23 103.7,26.89 196.65,50.32 196.65,49.54 192.81,48.4 197.8,57.23 2.31,4.99 -3.84,36.1 -23.04,110.23 -14.21,56.84 -55.69,220.08 -92.18,362.57 -36.1,142.5 -67.21,265.02 -69.52,271.93 -6.15,18.82 -13.06,20.74 -46.09,11.91 -15.75,-4.22 -103.7,-26.5 -195.5,-49.93 -91.8,-23.04 -173.61,-43.79 -181.29,-46.09 -8.84,-2.31 -14.98,-6.53 -16.51,-11.52 -1.54,-4.23 1.15,-23.81 6.14,-43.4 9.99,-42.25 7.3,-54.54 -13.82,-66.06 -15.75,-8.45 -34.18,-4.22 -44.94,10.37 -11.14,14.98 -26.88,82.19 -23.81,103.32 3.08,23.04 13.44,42.25 30.73,57.23 17.67,15.75 16.51,15.37 113.69,40.33 321.86,82.96 342.6,87.57 363.34,85.65 41.48,-4.23 68.36,-30.34 81.81,-77.97 3.84,-14.21 7.68,-26.5 8.83,-27.27 0.77,-0.77 21.13,4.61 44.94,11.91 135.2,40.71 206.64,51.47 443.23,65.67 88.72,5.38 216.62,13.06 284.22,17.29 436.32,26.88 437.85,27.27 453.6,21.51 8.45,-2.69 61.07,-36.87 117.53,-75.66 56.46,-38.79 139.42,-95.64 183.98,-126.36 44.94,-30.73 138.27,-94.48 207.79,-142.11 69.14,-47.63 167.46,-114.84 218.55,-149.79 50.7,-34.57 99.48,-70.67 107.92,-79.89 30.34,-33.03 46.48,-87.95 38.03,-130.2 -13.83,-71.06 -66.06,-119.45 -139.04,-129.44l-29.57 -3.84 0 -29.19c0,-115.22 -116.76,-188.58 -222.77,-140.19 -16.9,7.68 -35.34,23.43 -84.12,71.82 -51.47,51.47 -62.6,60.69 -64.53,54.54 -17.28,-54.54 -64.53,-94.48 -118.3,-100.25 -24.58,-2.3 -61.83,6.53 -82.19,19.59 -8.06,4.99 -43.79,38.79 -79.89,74.9 -62.61,62.99 -65.29,66.06 -65.29,81.04 0,21.51 14.98,36.49 36.48,36.49 14.98,0 18.06,-2.69 77.97,-61.84 34.19,-34.18 66.45,-64.91 71.82,-68.36 13.44,-8.84 44.17,-8.07 60.3,1.92 22.66,14.21 33.8,45.7 24.2,70.67 -1.92,5.38 -36.87,48.01 -77.59,94.48 -40.71,46.47 -77.97,90.26 -82.58,96.79 -12.68,17.67 -11.52,31.5 4.22,47.24 14.98,14.98 28.81,16.9 46.47,6.15 6.53,-4.22 86.81,-83.73 178.6,-177.06 178.98,-181.67 187.05,-188.58 222.39,-188.58 48.39,0.38 86.03,43.79 79.5,91.41 -3.07,22.66 -9.98,34.19 -35.72,60.69 -18.82,19.21 -43.78,34.95 -158.63,101.4 -74.89,43.02 -171.69,99.09 -215.09,124.06 -43.4,24.97 -91.41,53 -107.16,61.45 -40.71,23.43 -49.93,46.09 -27.27,68.75 9.98,9.6 14.21,11.52 24.58,9.6 6.91,-1.15 140.57,-74.89 296.51,-164 246.96,-140.96 286.52,-162.08 303.42,-164 64.91,-6.91 109.47,58 79.89,116.76 -8.83,18.05 -15.36,23.81 -78.74,67.21 -38.02,26.12 -85.65,58.38 -105.62,72.21 -19.59,13.83 -85.26,58.76 -145.57,99.86 -60.3,41.1 -125.98,86.04 -145.95,99.86 -19.97,13.83 -52.62,36.1 -72.97,49.93 -19.97,13.82 -83.73,57.23 -140.96,97.17 -69.52,47.63 -111.39,73.75 -124.06,77.59 -15.75,4.99 -28.43,5.38 -76.82,1.92 -72.21,-4.61 -245.82,-15.36 -535.8,-32.65 -123.67,-7.29 -244.66,-15.36 -268.86,-17.67 -84.88,-7.68 -172.84,-25.73 -258.49,-52.23 -35.72,-11.14 -44.56,-15.36 -43.4,-19.97 1.92,-6.91 99.48,-391.38 109.08,-429.79 5,-20.35 8.45,-26.12 21.51,-36.48 8.83,-6.91 21.12,-18.06 28.04,-24.97 6.53,-6.53 14.21,-12.29 16.51,-12.29 2.31,0 30.73,-19.59 62.61,-43.79 66.45,-49.93 81.42,-58.38 117.53,-66.06 49.93,-10.37 41.48,-12.29 251.96,52.23 462.82,141.73 475.11,145.57 488.17,155.56 15.36,11.52 27.27,33.03 30.73,54.93 6.91,43.01 -32.65,89.11 -76.05,89.11 -9.98,0 -85.65,-21.13 -195.11,-53.77 -436.7,-131.74 -396.75,-120.6 -409.43,-114.84 -24.2,11.52 -29.57,46.86 -8.84,61.83 13.83,10.37 568.83,179.75 598.02,182.44 31.11,3.08 66.45,-6.53 96.02,-25.73 25.73,-16.51 43.01,-36.49 57.61,-67.98 9.22,-19.97 10.37,-26.5 10.37,-62.6 0,-38.03 -0.77,-42.25 -12.29,-65.68 -14.59,-29.96 -44.55,-61.07 -69.13,-72.59 -9.6,-4.61 -162.08,-53.39 -338.76,-108.31l-321.09 -99.87 -48.01 -1.92c-79.89,-3.46 -119.84,11.52 -206.64,76.43 -28.42,21.12 -52.23,37.26 -53.39,36.1 -1.15,-1.15 0.77,-13.06 4.22,-26.89 10.76,-43.4 6.91,-67.98 -15.36,-97.17 -18.05,-23.43 -4.61,-19.21 -324.93,-100.63 -81.04,-20.74 -144.42,-34.95 -155.56,-34.95 -9.98,0 -25.35,3.45 -33.8,7.29l-0 0.01z"/>
   </g>
  </g>
 </g>
</svg>
