<?xml version="1.0" encoding="UTF-8"?>
<!DOCTYPE svg PUBLIC "-//W3C//DTD SVG 1.1//EN" "http://www.w3.org/Graphics/SVG/1.1/DTD/svg11.dtd">
<!-- Creator: CorelDRAW 2020 (64 Bit) -->
<svg xmlns="http://www.w3.org/2000/svg" xml:space="preserve" width="93.1514mm" height="67.1674mm" version="1.1" style="shape-rendering:geometricPrecision; text-rendering:geometricPrecision; image-rendering:optimizeQuality; fill-rule:evenodd; clip-rule:evenodd"
viewBox="0 0 8369.5 6034.88"
 xmlns:xlink="http://www.w3.org/1999/xlink"
 xmlns:xodm="http://www.corel.com/coreldraw/odm/2003">
 <defs>
  <style type="text/css">
   <![CDATA[
    .fil0 {fill:#354B9C;fill-rule:nonzero}
    .fil1 {fill:url(#id0)}
   ]]>
  </style>
  <linearGradient id="id0" gradientUnits="userSpaceOnUse" x1="4191.51" y1="4139.05" x2="4191.51" y2="0.01">
   <stop offset="0" style="stop-opacity:1; stop-color:#354B9C"/>
   <stop offset="0.701961" style="stop-opacity:1; stop-color:#393668"/>
   <stop offset="1" style="stop-opacity:1; stop-color:#393668"/>
  </linearGradient>
 </defs>
 <g id="Camada_x0020_1">
  <metadata id="CorelCorpID_0Corel-Layer"/>
  <g id="_2983356773200">
   <g>
    <path class="fil0" d="M-0 5920.78l0 -1184.79c0,-70.37 47.55,-114.11 131.22,-114.11 68.46,0 112.21,30.43 127.42,79.88 30.43,-30.43 104.57,-79.88 207.26,-79.88 83.68,0 140.73,26.62 169.26,96.99 11.41,-24.73 95.12,-96.99 218.71,-96.99 125.52,0 190.18,60.85 190.18,237.72l0 1061.17c0,70.36 -47.55,114.11 -129.33,114.11 -83.68,0 -131.22,-43.75 -131.22,-114.11l0 -998.41c0,-57.05 -24.72,-85.58 -64.65,-85.58 -24.73,0 -47.55,13.32 -62.76,32.34l0 1051.66c0,70.36 -49.45,114.11 -131.22,114.11 -83.68,0 -131.22,-43.75 -131.22,-114.11l0 -998.41c0,-57.05 -24.69,-85.58 -62.76,-85.58 -28.5,0 -53.22,15.22 -68.44,36.1l0 1047.89c0,70.36 -49.44,114.11 -131.22,114.11 -83.68,0 -131.22,-43.75 -131.22,-114.11z"/>
    <path class="fil0" d="M1163.91 5867.5l0 -1078.29c0,-102.66 57.05,-159.75 159.75,-159.75l230.12 0c66.53,0 112.18,43.75 112.18,123.65 0,77.97 -45.64,123.59 -112.18,123.59l-123.65 0 0 287.17 100.79 0c58.96,0 100.83,41.83 100.83,110.3 0,70.37 -41.87,112.21 -100.83,112.21l-100.79 0 0 393.63 117.91 0c66.6,0 112.21,45.68 112.21,123.65 0,77.97 -45.62,123.59 -112.21,123.59l-224.38 0c-102.7,0 -159.75,-57.05 -159.75,-159.75z"/>
    <path class="fil0" d="M1772.46 5867.5l0 -1078.29c0,-102.66 57.05,-159.75 159.75,-159.75l230.11 0c66.53,0 112.18,43.75 112.18,123.65 0,77.97 -45.64,123.59 -112.18,123.59l-123.64 0 0 287.17 100.79 0c58.96,0 100.83,41.83 100.83,110.3 0,70.37 -41.87,112.21 -100.83,112.21l-100.79 0 0 393.63 117.91 0c66.6,0 112.2,45.68 112.2,123.65 0,77.97 -45.61,123.59 -112.2,123.59l-224.38 0c-102.7,0 -159.75,-57.05 -159.75,-159.75z"/>
    <path class="fil0" d="M2639.62 5264.68l66.6 0c38.03,0 60.85,-22.86 60.85,-64.66l0 -283.36c0,-41.84 -22.82,-68.46 -60.85,-68.46l-66.6 0 0 416.49zm-258.61 659.86l0 -1135.31c0,-102.66 57.05,-159.75 159.75,-159.75l186.37 0c195.85,0 298.55,95.09 298.55,279.56l0 289.04c0,184.5 -102.7,277.66 -298.55,277.66l-87.51 0 0 448.79c0,68.49 -47.51,110.33 -129.29,110.33 -81.77,0 -129.32,-41.84 -129.32,-110.33z"/>
    <path class="fil0" d="M3124.6 5867.5l0 -1129.64c0,-72.24 49.44,-115.98 133.13,-115.98 83.68,0 133.09,43.74 133.09,115.98l0 1042.15 83.68 0c62.8,0 106.5,47.55 106.5,123.65 0,77.97 -45.64,123.59 -112.2,123.59l-184.44 0c-102.7,0 -159.75,-57.05 -159.75,-159.75z"/>
    <path class="fil0" d="M3666.61 5867.5l0 -1078.29c0,-102.66 57.05,-159.75 159.75,-159.75l230.11 0c66.53,0 112.21,43.75 112.21,123.65 0,77.97 -45.68,123.59 -112.21,123.59l-123.65 0 0 287.17 100.8 0c58.95,0 100.83,41.83 100.83,110.3 0,70.37 -41.88,112.21 -100.83,112.21l-100.8 0 0 393.63 117.92 0c66.6,0 112.2,45.68 112.2,123.65 0,77.97 -45.61,123.59 -112.2,123.59l-224.38 0c-102.7,0 -159.75,-57.05 -159.75,-159.75z"/>
    <path class="fil0" d="M4383.45 5795.26l0 -207.3c0,-32.33 24.73,-55.15 55.16,-55.15 30.42,0 55.15,22.82 55.15,55.15l0 213c0,91.29 45.64,138.82 133.13,138.82l19.01 0c89.39,0 135.03,-49.47 135.03,-138.82l0 -224.41c0,-110.31 -26.66,-165.46 -148.38,-262.45l-47.51 -36.1c-144.54,-116.01 -190.18,-199.69 -190.18,-348.03l0 -72.27c0,-155.95 79.88,-237.73 222.51,-237.73l38.04 0c144.53,0 224.38,79.88 224.38,237.73l0 169.26c0,30.43 -24.69,55.15 -55.12,55.15 -30.43,0 -55.15,-24.72 -55.15,-55.15l0 -171.2c0,-87.45 -43.75,-140.69 -123.62,-140.69l-19.01 0c-79.88,0 -121.72,55.15 -121.72,140.69l0 79.91c0,108.4 26.62,161.62 148.34,258.61l45.64 36.16c148.34,114.08 192.08,199.66 192.08,349.9l0 214.91c0,161.65 -81.81,239.63 -235.82,239.63l-38.04 0c-152.14,0 -233.92,-77.98 -233.92,-239.63z"/>
    <path class="fil0" d="M5127.08 5981.63l0 -1249.45 -110.3 0c-28.53,0 -51.38,-22.82 -51.38,-53.24 0,-26.6 22.86,-49.45 51.38,-49.45l334.68 0c26.63,0 49.48,22.86 49.48,49.45 0,30.42 -22.85,53.24 -49.48,53.24l-112.2 0 0 1249.45c0,30.4 -26.62,53.24 -55.12,53.24 -30.42,0 -57.05,-22.85 -57.05,-53.24z"/>
    <path class="fil0" d="M5572.07 5207.6l279.54 0c-3.81,-207.26 -30.43,-306.16 -102.7,-414.56l-32.3 -43.74 -7.64 0 -32.3 43.74c-72.27,108.4 -100.83,207.3 -104.6,414.56zm-55.15 827.28c-30.43,0 -55.16,-22.86 -55.16,-53.25l0 -663.73c0,-374.61 34.23,-464 193.98,-667.49 13.32,-17.12 26.6,-30.43 57.03,-30.43 28.53,0 43.74,13.32 57.05,30.43 161.66,207.3 193.98,296.68 193.98,667.49l0 663.73c0,30.4 -26.6,53.25 -55.15,53.25 -30.43,0 -57.05,-22.86 -57.05,-53.25l0 -671.33 -279.54 0 0 671.33c0,30.4 -24.73,53.25 -55.15,53.25z"/>
    <path class="fil0" d="M6262.41 5207.6l154.01 0c85.62,0 131.22,-45.62 131.22,-131.22l0 -209.17c0,-81.78 -43.74,-135.02 -131.22,-135.02l-154.01 0 0 475.41zm-110.31 774.03l0 -1277.94c0,-47.54 26.6,-74.2 72.27,-74.2l199.69 0c154.02,0 235.79,79.88 235.79,232.02l0 214.87c0,81.77 -30.42,150.27 -102.7,180.7 72.27,30.42 102.7,95.09 102.7,180.63l0 543.92c0,30.4 -26.62,53.25 -55.15,53.25 -30.43,0 -57.05,-22.86 -57.05,-53.25l0 -542.01c0,-85.58 -45.61,-133.13 -131.22,-133.13l-154.01 0 0 675.14c0,30.4 -24.73,53.25 -55.16,53.25 -30.42,0 -55.15,-22.86 -55.15,-53.25z"/>
    <path class="fil0" d="M6901.38 5981.63l0 -1249.45 -110.27 0c-28.56,0 -51.38,-22.82 -51.38,-53.24 0,-26.6 22.82,-49.45 51.38,-49.45l334.69 0c26.62,0 49.44,22.86 49.44,49.45 0,30.42 -22.82,53.24 -49.44,53.24l-112.21 0 0 1249.45c0,30.4 -26.62,53.24 -55.15,53.24 -30.43,0 -57.05,-22.85 -57.05,-53.24z"/>
    <path class="fil0" d="M7306.44 5953.08l0 -1249.41c0,-47.54 26.63,-74.2 72.27,-74.2l270.05 0c28.53,0 53.23,22.85 53.23,51.35 0,30.43 -24.7,53.25 -53.23,53.25l-232.02 0 0 471.64 205.39 0c28.5,0 49.44,22.82 49.44,51.35 0,30.43 -20.94,51.35 -49.44,51.35l-205.39 0 0 614.25 241.53 0c28.53,0 53.22,22.82 53.22,51.35 0,30.42 -24.69,53.24 -53.22,53.24l-279.56 0c-45.64,0 -72.27,-26.62 -72.27,-74.17z"/>
    <path class="fil0" d="M7972.06 5207.6l154.02 0c85.61,0 131.22,-45.62 131.22,-131.22l0 -209.17c0,-81.78 -43.74,-135.02 -131.22,-135.02l-154.02 0 0 475.41zm-110.3 774.03l0 -1277.94c0,-47.54 26.6,-74.2 72.27,-74.2l199.69 0c154.02,0 235.79,79.88 235.79,232.02l0 214.87c0,81.77 -30.42,150.27 -102.7,180.7 72.27,30.42 102.7,95.09 102.7,180.63l0 543.92c0,30.4 -26.62,53.25 -55.15,53.25 -30.43,0 -57.05,-22.86 -57.05,-53.25l0 -542.01c0,-85.58 -45.62,-133.13 -131.22,-133.13l-154.02 0 0 675.14c0,30.4 -24.72,53.25 -55.15,53.25 -30.43,0 -55.15,-22.86 -55.15,-53.25z"/>
   </g>
   <path class="fil1" d="M4129.24 0.66c-1222.72,28.84 -2218.12,1029.12 -2241.38,2251.92l0 0c-13.98,734.31 316.72,1391.72 841.13,1821.72l0 0c317.78,260.58 795.14,199.06 1032.74,-136.23l0 0c345.14,-487.11 292.02,-1121.17 292.02,-1121.17l0 0 262.03 0c0,0 -53.15,634.16 292.09,1121.24l0 0c236.87,334.27 712.95,397.53 1030.14,138.23l0 0c515.19,-421.22 844.11,-1061.61 844.11,-1779.03l0 0c0,-1268.69 -1028.65,-2297.21 -2297.3,-2297.33l0 0c-18.54,0 -36.93,0.22 -55.57,0.66zm-600.17 1795.07c-86.06,-464.07 -9.25,-1025.89 601.63,-1474.27l0 0c32.23,-23.65 75.88,-23.65 108.08,0l0 0c610.89,448.38 687.73,1010.2 601.67,1474.27l0 0c191.66,179.21 218.13,717.76 218.13,717.76l0 0 -462.9 -44.34c-75.15,139.18 -136.39,222.35 -136.39,222.35l0 0 -549.08 0c0,0 -61.27,-83.17 -136.39,-222.35l0 0 -462.89 44.34c0,0 26.43,-538.55 218.13,-717.76zm489.81 -699.33c-19.15,4.41 -38.58,10.02 -58.07,17.38l0 0c-17.05,6.43 -33.22,13.78 -48.56,21.77l0 0c-0.13,0.1 -0.29,0.13 -0.38,0.22l0 0c-7.48,3.86 -14.74,7.92 -21.74,12.14l0 0c-0.29,0.19 -0.6,0.38 -0.93,0.58l0 0c-35.71,21.52 -65.32,46.78 -86.94,73.5l0 0c-0.51,0.63 -0.99,1.23 -1.46,1.83l0 0c-3.62,4.54 -6.98,9.1 -10.08,13.69l0 0c-0.66,1.02 -1.37,1.99 -2.07,3.05l0 0c-2.79,4.28 -5.35,8.55 -7.73,12.87l0 0c-0.6,1.14 -1.28,2.26 -1.88,3.4l0 0c-2.37,4.47 -4.43,8.93 -6.31,13.43l0 0c-0.38,0.86 -0.79,1.72 -1.14,2.57l0 0c-4.21,10.62 -7.04,21.18 -8.36,31.64l0 0c-0.22,1.46 -0.25,2.88 -0.38,4.34l0 0c-0.22,2.7 -0.6,5.45 -0.64,8.11l0 0c0,0 0.22,0.19 0.25,0.19l0 0c-0.15,12.3 1.65,24.35 6.06,35.79l0 0c19.85,51.45 85.77,63.87 164.85,62.57l0 0 0.04 0c2.91,1.18 5.86,2.32 9,3.17l0 0 -137.34 289.67c-18.9,39.85 10.17,85.77 54.26,85.77l0 0 0.29 0 220.7 0 0.31 0 89.45 -137.78c3.42,-5.23 9.16,-7.45 14.67,-6.94l0 0c5.52,-0.51 11.25,1.71 14.65,6.94l0 0 89.48 137.78 0.31 0 220.7 0 0.29 0c44.09,0 73.15,-45.92 54.26,-85.77l0 0 -137.31 -289.67c3.11,-0.85 6.08,-1.99 8.97,-3.17l0 0 0.04 0c79.08,1.3 145.01,-11.12 164.85,-62.57l0 0c4.4,-11.44 6.21,-23.49 6.06,-35.79l0 0c0.03,0 0.25,-0.19 0.25,-0.19l0 0c-0.04,-2.66 -0.41,-5.42 -0.64,-8.11l0 0c-0.15,-1.46 -0.19,-2.88 -0.35,-4.34l0 0c-1.36,-10.46 -4.18,-21.02 -8.39,-31.64l0 0c-0.35,-0.85 -0.8,-1.71 -1.14,-2.57l0 0c-1.88,-4.5 -3.96,-8.97 -6.31,-13.43l0 0c-0.6,-1.14 -1.28,-2.26 -1.9,-3.4l0 0c-2.35,-4.31 -4.91,-8.59 -7.74,-12.87l0 0c-0.66,-1.05 -1.37,-2.03 -2.03,-3.05l0 0c-3.14,-4.59 -6.5,-9.16 -10.07,-13.69l0 0c-0.48,-0.6 -0.95,-1.2 -1.46,-1.83l0 0c-21.62,-26.72 -51.22,-51.99 -86.94,-73.5l0 0c-0.32,-0.2 -0.6,-0.39 -0.93,-0.58l0 0c-7,-4.21 -14.26,-8.28 -21.71,-12.14l0 0c-0.13,-0.1 -0.29,-0.13 -0.41,-0.22l0 0c-15.37,-7.99 -31.51,-15.34 -48.56,-21.77l0 0c-19.49,-7.36 -38.92,-12.97 -58.1,-17.38l0 0c-2.53,-111.38 -75.72,-200.79 -165.87,-200.79l0 0c-90.14,0 -163.36,89.42 -165.9,200.79l0 0z"/>
  </g>
 </g>
</svg>
